<svg xmlns="http://www.w3.org/2000/svg" viewBox="0 0 800 500" role="img" aria-label="가족 공원 이미지">
  <rect width="800" height="500" fill="#e9f3ec"/>
  <path d="M0 378c106-72 209-76 309-12 86 55 170 53 251-5 78-56 158-58 240-6v145H0V378z" fill="#9bc8a8"/>
  <circle cx="621" cy="112" r="66" fill="#f3b35f"/>
  <path d="M154 318h92l-46-168-46 168z" fill="#2f6f68"/>
  <path d="M252 330h128l-64-214-64 214z" fill="#3f877b"/>
  <path d="M476 331h112l-56-184-56 184z" fill="#2f6f68"/>
  <rect x="194" y="318" width="14" height="72" rx="7" fill="#8a5d38"/>
  <rect x="309" y="330" width="16" height="72" rx="8" fill="#8a5d38"/>
  <rect x="525" y="331" width="16" height="72" rx="8" fill="#8a5d38"/>
  <path d="M120 409c86-36 172-34 258 4 87 39 176 39 267 0" fill="none" stroke="#fffdf8" stroke-width="18" stroke-linecap="round"/>
</svg>
